<?xml version="1.0" encoding="UTF-8"?>
<svg version="1.1" xmlns="http://www.w3.org/2000/svg" width="600" height="600">
<path d="M0 0 C0.95572906 0.00337372 1.91145813 0.00674744 2.89614868 0.01022339 C50.57620607 0.25296472 97.33505308 15.14498766 135.3125 44.4375 C136.2715625 45.16710937 137.230625 45.89671875 138.21875 46.6484375 C144.16853119 51.29440861 149.81480628 56.26723125 155.3125 61.4375 C155.87098633 61.9619873 156.42947266 62.48647461 157.00488281 63.02685547 C166.90277003 72.40029842 175.38481186 82.35848245 183.3125 93.4375 C183.74868652 94.03433594 184.18487305 94.63117188 184.63427734 95.24609375 C200.75159771 117.41447825 211.8784584 143.17125908 218.6875 169.625 C219.02769165 170.9389978 219.02769165 170.9389978 219.37475586 172.27954102 C223.48755864 189.40409395 224.87145746 206.56178938 224.75 224.125 C224.74662628 225.08072906 224.74325256 226.03645813 224.73977661 227.02114868 C224.49703528 274.70120607 209.60501234 321.46005308 180.3125 359.4375 C179.58289063 360.3965625 178.85328125 361.355625 178.1015625 362.34375 C173.45559139 368.29353119 168.48276875 373.93980628 163.3125 379.4375 C162.7880127 379.99598633 162.26352539 380.55447266 161.72314453 381.12988281 C152.34970158 391.02777003 142.39151755 399.50981186 131.3125 407.4375 C130.71566406 407.87368652 130.11882812 408.30987305 129.50390625 408.75927734 C107.33552175 424.87659771 81.57874092 436.0034584 55.125 442.8125 C54.24900146 443.03929443 53.37300293 443.26608887 52.47045898 443.49975586 C35.34590605 447.61255864 18.18821062 448.99645746 0.625 448.875 C-0.8085936 448.86993942 -0.8085936 448.86993942 -2.27114868 448.86477661 C-49.95120607 448.62203528 -96.71005308 433.73001234 -134.6875 404.4375 C-135.6465625 403.70789063 -136.605625 402.97828125 -137.59375 402.2265625 C-143.54353119 397.58059139 -149.18980628 392.60776875 -154.6875 387.4375 C-155.52522949 386.65076904 -155.52522949 386.65076904 -156.37988281 385.84814453 C-166.27777003 376.47470158 -174.75981186 366.51651755 -182.6875 355.4375 C-183.12368652 354.84066406 -183.55987305 354.24382812 -184.00927734 353.62890625 C-200.12659771 331.46052175 -211.2534584 305.70374092 -218.0625 279.25 C-218.28929443 278.37400146 -218.51608887 277.49800293 -218.74975586 276.59545898 C-222.86255864 259.47090605 -224.24645746 242.31321062 -224.125 224.75 C-224.12162628 223.79427094 -224.11825256 222.83854187 -224.11477661 221.85385132 C-223.87203528 174.17379393 -208.98001234 127.41494692 -179.6875 89.4375 C-178.95789063 88.4784375 -178.22828125 87.519375 -177.4765625 86.53125 C-172.83059139 80.58146881 -167.85776875 74.93519372 -162.6875 69.4375 C-162.1630127 68.87901367 -161.63852539 68.32052734 -161.09814453 67.74511719 C-151.72470158 57.84722997 -141.76651755 49.36518814 -130.6875 41.4375 C-129.79224609 40.78322021 -129.79224609 40.78322021 -128.87890625 40.11572266 C-106.71052175 23.99840229 -80.95374092 12.8715416 -54.5 6.0625 C-53.62400146 5.83570557 -52.74800293 5.60891113 -51.84545898 5.37524414 C-34.72090605 1.26244136 -17.56321062 -0.12145746 0 0 Z " fill="#020202" transform="translate(284.6875,73.5625)"/>
<path d="M0 0 C101.63048017 0 101.63048017 0 121.03125 17.87109375 C130.35142389 27.70224208 134.41078115 40.06633998 134.25 53.375 C134.24033203 54.21716064 134.23066406 55.05932129 134.22070312 55.92700195 C133.92951625 70.96826022 128.81874336 85.13010486 118.1328125 96.109375 C111.33443636 102.13577436 103.65310341 107.1156322 95 110 C95.72703125 110.15855469 96.4540625 110.31710937 97.203125 110.48046875 C114.2958395 114.44685506 128.81634761 121.91143445 138.8125 136.875 C144.58794469 146.8471346 146.19198211 156.81151211 146.25 168.125 C146.2809375 169.59839844 146.2809375 169.59839844 146.3125 171.1015625 C146.39760265 187.27106594 139.6205393 203.18920784 128.48364258 214.90063477 C95.21661672 247.59263323 41.08648282 237 0 237 C0 158.79 0 80.58 0 0 Z " fill="#6C62C2" transform="translate(315,180)"/>
<path d="M0 0 C104.97149725 0 104.97149725 0 127.75 21.1875 C143.39097445 37.70845668 145.55951875 56.33667096 145.26953125 77.96875 C144.68832981 96.31524669 137.07134723 112.25818253 124 125 C123.26394531 125.76828125 122.52789062 126.5365625 121.76953125 127.328125 C107.04851412 141.82721725 85.10288073 148.20035512 64.9140625 148.09765625 C63.97651123 148.09664917 63.03895996 148.09564209 62.07299805 148.09460449 C58.59031949 148.08939554 55.10765844 148.07543435 51.625 148.0625 C43.82875 148.041875 36.0325 148.02125 28 148 C28 177.7 28 207.4 28 238 C18.76 238 9.52 238 0 238 C0 159.46 0 80.92 0 0 Z " fill="#6871D8" transform="translate(125,179)"/>
<path d="M0 0 C61.65417376 0 61.65417376 0 75.6015625 12.29296875 C84.72350018 21.87546029 88.49555567 32.84527292 88.18359375 45.984375 C87.22768477 61.68568847 83.8695046 74.11459984 72 85 C52.47115224 100.95992076 22.74335337 97 0 97 C0 64.99 0 32.98 0 0 Z " fill="#000000" transform="translate(153,205)"/>
<path d="M0 0 C62.33333333 0 62.33333333 0 78.5625 14.25 C85.93173144 22.5640047 88.39484873 30.8920317 88.3125 41.875 C88.30686035 42.66583984 88.3012207 43.45667969 88.29541016 44.27148438 C88.17108602 50.26366172 87.52731878 55.50163471 85 61 C84.43152344 62.25683594 84.43152344 62.25683594 83.8515625 63.5390625 C78.4544239 73.8653797 68.8557442 79.5521064 58 83 C57.03795654 83.34224609 56.07591309 83.68449219 55.0847168 84.03710938 C49.85457897 85.51552915 44.55260738 85.24710221 39.16015625 85.1953125 C38.16463745 85.19329834 37.16911865 85.19128418 36.14343262 85.18920898 C32.44974107 85.17880065 28.75611556 85.15087832 25.0625 85.125 C16.791875 85.08375 8.52125 85.0425 0 85 C0 56.95 0 28.9 0 0 Z " fill="#000000" transform="translate(343,306)"/>
<path d="M0 0 C6.97125 -0.0825 13.9425 -0.165 21.125 -0.25 C23.29465332 -0.28641602 25.46430664 -0.32283203 27.69970703 -0.36035156 C42.0269554 -0.50040697 56.45429087 0.36828543 68 10 C75.28675166 18.08734448 77.43383904 25.53480585 77.18359375 36.20703125 C76.43957323 47.52564122 72.79988166 57.35228666 64.3515625 65.18359375 C45.76814383 79.53789555 22.46240045 76 0 76 C0 50.92 0 25.84 0 0 Z " fill="#000000" transform="translate(343,205)"/>
<path d="M0 0 C-1.53652003 3.63879675 -3.72420759 5.98214646 -6.5 8.765625 C-7.8303125 10.09980469 -7.8303125 10.09980469 -9.1875 11.4609375 C-10.115625 12.38132813 -11.04375 13.30171875 -12 14.25 C-12.928125 15.18585938 -13.85625 16.12171875 -14.8125 17.0859375 C-15.699375 17.97023437 -16.58625 18.85453125 -17.5 19.765625 C-18.3146875 20.57805664 -19.129375 21.39048828 -19.96875 22.22753906 C-22 24 -22 24 -24 24 C-22.46347997 20.36120325 -20.27579241 18.01785354 -17.5 15.234375 C-16.1696875 13.90019531 -16.1696875 13.90019531 -14.8125 12.5390625 C-13.4203125 11.15847656 -13.4203125 11.15847656 -12 9.75 C-11.071875 8.81414062 -10.14375 7.87828125 -9.1875 6.9140625 C-8.300625 6.02976563 -7.41375 5.14546875 -6.5 4.234375 C-5.6853125 3.42194336 -4.870625 2.60951172 -4.03125 1.77246094 C-2 0 -2 0 0 0 Z " fill="#545454" transform="translate(139,128)"/>
</svg>
