<?xml version="1.0" encoding="UTF-8"?>
<svg version="1.1" xmlns="http://www.w3.org/2000/svg" width="600" height="600">
<path d="M0 0 C0.95572906 0.00337372 1.91145813 0.00674744 2.89614868 0.01022339 C50.57620607 0.25296472 97.33505308 15.14498766 135.3125 44.4375 C136.2715625 45.16710937 137.230625 45.89671875 138.21875 46.6484375 C144.16853119 51.29440861 149.81480628 56.26723125 155.3125 61.4375 C155.87098633 61.9619873 156.42947266 62.48647461 157.00488281 63.02685547 C166.90277003 72.40029842 175.38481186 82.35848245 183.3125 93.4375 C183.74868652 94.03433594 184.18487305 94.63117188 184.63427734 95.24609375 C200.75159771 117.41447825 211.8784584 143.17125908 218.6875 169.625 C219.02769165 170.9389978 219.02769165 170.9389978 219.37475586 172.27954102 C223.48755864 189.40409395 224.87145746 206.56178938 224.75 224.125 C224.74662628 225.08072906 224.74325256 226.03645813 224.73977661 227.02114868 C224.49703528 274.70120607 209.60501234 321.46005308 180.3125 359.4375 C179.58289063 360.3965625 178.85328125 361.355625 178.1015625 362.34375 C173.45559139 368.29353119 168.48276875 373.93980628 163.3125 379.4375 C162.7880127 379.99598633 162.26352539 380.55447266 161.72314453 381.12988281 C152.34970158 391.02777003 142.39151755 399.50981186 131.3125 407.4375 C130.71566406 407.87368652 130.11882812 408.30987305 129.50390625 408.75927734 C107.33552175 424.87659771 81.57874092 436.0034584 55.125 442.8125 C54.24900146 443.03929443 53.37300293 443.26608887 52.47045898 443.49975586 C35.34590605 447.61255864 18.18821062 448.99645746 0.625 448.875 C-0.8085936 448.86993942 -0.8085936 448.86993942 -2.27114868 448.86477661 C-49.95120607 448.62203528 -96.71005308 433.73001234 -134.6875 404.4375 C-135.6465625 403.70789063 -136.605625 402.97828125 -137.59375 402.2265625 C-143.54353119 397.58059139 -149.18980628 392.60776875 -154.6875 387.4375 C-155.52522949 386.65076904 -155.52522949 386.65076904 -156.37988281 385.84814453 C-166.27777003 376.47470158 -174.75981186 366.51651755 -182.6875 355.4375 C-183.12368652 354.84066406 -183.55987305 354.24382812 -184.00927734 353.62890625 C-200.12659771 331.46052175 -211.2534584 305.70374092 -218.0625 279.25 C-218.28929443 278.37400146 -218.51608887 277.49800293 -218.74975586 276.59545898 C-222.86255864 259.47090605 -224.24645746 242.31321062 -224.125 224.75 C-224.12162628 223.79427094 -224.11825256 222.83854187 -224.11477661 221.85385132 C-223.87203528 174.17379393 -208.98001234 127.41494692 -179.6875 89.4375 C-178.95789063 88.4784375 -178.22828125 87.519375 -177.4765625 86.53125 C-172.83059139 80.58146881 -167.85776875 74.93519372 -162.6875 69.4375 C-162.1630127 68.87901367 -161.63852539 68.32052734 -161.09814453 67.74511719 C-151.72470158 57.84722997 -141.76651755 49.36518814 -130.6875 41.4375 C-129.79224609 40.78322021 -129.79224609 40.78322021 -128.87890625 40.11572266 C-106.71052175 23.99840229 -80.95374092 12.8715416 -54.5 6.0625 C-53.62400146 5.83570557 -52.74800293 5.60891113 -51.84545898 5.37524414 C-34.72090605 1.26244136 -17.56321062 -0.12145746 0 0 Z " fill="#6C6BCE" transform="translate(284.6875,73.5625)"/>
<path d="M0 0 C101.87207031 0 101.87207031 0 120.19140625 17.0625 C132.40334885 30.14484023 134.49943325 43.67267406 134.07568359 60.8125 C133.63215718 73.63184409 127.05495894 86.97043675 118.12109375 96.11328125 C111.13864372 102.32418984 103.60914943 106.44831668 95 110 C96.74023438 110.41958984 96.74023438 110.41958984 98.515625 110.84765625 C114.0485277 114.75796741 128.1788927 120.83522296 137.22119141 134.89941406 C146.76757204 151.29074428 148.38782246 168.78782981 144.15625 187.2421875 C138.40443013 205.93560209 127.01638111 218.74248163 110 228 C75.62734422 244.3641115 37.70625764 237 0 237 C0 158.79 0 80.58 0 0 Z " fill="#FDFDFE" transform="translate(315,180)"/>
<path d="M0 0 C91.74528302 0 91.74528302 0 110 9 C111.06734375 9.5259375 112.1346875 10.051875 113.234375 10.59375 C124.36529759 16.58297738 132.17693708 24.84828517 138 36 C138.38929688 36.71285156 138.77859375 37.42570312 139.1796875 38.16015625 C147.30879745 53.5579959 147.84830444 77.37590798 143.17578125 93.91796875 C139.5098088 103.5274447 134.94112739 113.31460253 128 121 C126.90751953 122.21236328 126.90751953 122.21236328 125.79296875 123.44921875 C110.91040841 139.12864059 92.09846742 145.65572584 71 148 C56.81 148 42.62 148 28 148 C28 177.7 28 207.4 28 238 C18.76 238 9.52 238 0 238 C0 159.46 0 80.92 0 0 Z " fill="#FEFEFE" transform="translate(125,179)"/>
<path d="M0 0 C62.24908759 0 62.24908759 0 76.875 13.125 C86.27030106 23.5080711 88.41148451 35.90041466 88.18359375 49.359375 C87.54039718 62.11382613 83.4411276 73.57222126 74.43359375 82.81640625 C54.13334137 101.03123944 25.12306755 97 0 97 C0 64.99 0 32.98 0 0 Z " fill="#6A70D5" transform="translate(153,205)"/>
<path d="M0 0 C51.76358696 0 51.76358696 0 63.4375 4.75 C64.10507324 5.01385498 64.77264648 5.27770996 65.46044922 5.54956055 C76.1445032 9.94572607 81.89030542 16.15867193 86.640625 26.609375 C88.46175926 31.65767927 88.47773188 36.55707635 88.4375 41.875 C88.45748047 42.80441406 88.47746094 43.73382813 88.49804688 44.69140625 C88.49092429 54.90519316 84.69284688 64.25418368 78 72 C66.09894316 82.56218795 52.93198862 85.17440345 37.59765625 85.09765625 C36.64145386 85.09664917 35.68525146 85.09564209 34.70007324 85.09460449 C31.15420316 85.08940259 27.60835028 85.07544148 24.0625 85.0625 C16.121875 85.041875 8.18125 85.02125 0 85 C0 56.95 0 28.9 0 0 Z " fill="#6D66C7" transform="translate(343,306)"/>
<path d="M0 0 C10.51875 -0.0928125 10.51875 -0.0928125 21.25 -0.1875 C23.43786133 -0.21481201 25.62572266 -0.24212402 27.87988281 -0.27026367 C43.03279317 -0.38060762 57.59850935 0.55183449 69.39453125 11.16015625 C76.79702663 19.6433079 77.85290291 30.2104112 77.2265625 41.02783203 C76.13192985 50.55632613 71.09323991 59.81124925 63.734375 65.86328125 C49.65047418 75.70936161 35.04155108 76.7108113 18.5 76.3125 C12.395 76.209375 6.29 76.10625 0 76 C0 50.92 0 25.84 0 0 Z " fill="#6C69CB" transform="translate(343,205)"/>
<path d="M0 0 C-1.56282982 3.76603869 -3.9063475 6.13639151 -6.7890625 8.984375 C-7.25234955 9.44483215 -7.7156366 9.90528931 -8.19296265 10.37969971 C-9.66565898 11.84125078 -11.14517403 13.29567168 -12.625 14.75 C-13.62806322 15.74302611 -14.63067257 16.73651089 -15.6328125 17.73046875 C-18.08330835 20.15897941 -20.5399667 22.58114675 -23 25 C-23.66 24.67 -24.32 24.34 -25 24 C-20.11111914 18.2739886 -15.00824847 12.82567965 -9.6875 7.5 C-8.97271484 6.77296875 -8.25792969 6.0459375 -7.52148438 5.296875 C-6.83763672 4.61109375 -6.15378906 3.9253125 -5.44921875 3.21875 C-4.83393311 2.59935547 -4.21864746 1.97996094 -3.5847168 1.34179688 C-2 0 -2 0 0 0 Z " fill="#9298D5" transform="translate(139,128)"/>
</svg>
